<svg width="24" height="24" viewBox="0 0 24 24" fill="none" xmlns="http://www.w3.org/2000/svg">
<path fill-rule="evenodd" clip-rule="evenodd" d="M20 8.71467C20 4.78098 16.625 1.5625 12.5 1.5625C8.375 1.5625 5 4.78098 5 8.71467C5 15.9563 12.5 22.125 12.5 22.125C12.5 22.125 20 15.9563 20 8.71467ZM17.1875 8.71467C17.1875 11.1834 15.0888 13.1848 12.5 13.1848C9.91117 13.1848 7.8125 11.1834 7.8125 8.71467C7.8125 6.2459 9.91117 4.24457 12.5 4.24457C15.0888 4.24457 17.1875 6.2459 17.1875 8.71467Z" fill="#FFCF39"/>
<path d="M12.5 13.1875C15.0888 13.1875 17.1875 11.0888 17.1875 8.5C17.1875 5.91117 15.0888 3.8125 12.5 3.8125C9.91117 3.8125 7.8125 5.91117 7.8125 8.5C7.8125 11.0888 9.91117 13.1875 12.5 13.1875Z" stroke="#17253D" stroke-miterlimit="10" stroke-linecap="round" stroke-linejoin="round"/>
<path d="M12.5 13.1875C15.0888 13.1875 17.1875 11.0888 17.1875 8.5C17.1875 5.91117 15.0888 3.8125 12.5 3.8125C9.91117 3.8125 7.8125 5.91117 7.8125 8.5C7.8125 11.0888 9.91117 13.1875 12.5 13.1875Z" stroke="#17253D" stroke-miterlimit="10" stroke-linecap="round" stroke-linejoin="round"/>
<path d="M12.5 1C16.625 1 20 4.375 20 8.5C20 16.0938 12.5 22.5625 12.5 22.5625C12.5 22.5625 5 16.0938 5 8.5C5 4.375 8.375 1 12.5 1Z" stroke="#17253D" stroke-miterlimit="10" stroke-linecap="round" stroke-linejoin="round"/>
</svg>
